/* XPM */
static const char * default_xpm[] = {
"16 11 64 1",
" 	c None",
".	c #FDC923",
"+	c #FDD655",
"@	c #F9B900",
"#	c #F4B400",
"$	c #F9CF51",
"%	c #F0B206",
"&	c #FCCD33",
"*	c #FFEB99",
"=	c #F7C018",
"-	c #F5C12C",
";	c #FFE184",
">	c #EEB00A",
",	c #FAD14C",
"'	c #FCDE76",
")	c #F2B50C",
"!	c #FDDB73",
"~	c #F5C644",
"{	c #F1AD00",
"]	c #FEE284",
"^	c #FEDE71",
"/	c #FBD567",
"(	c #E6A000",
"_	c #F9C013",
":	c #FBD459",
"<	c #F9CC45",
"[	c #F6C943",
"}	c #FDDD70",
"|	c #FFD95D",
"1	c #FDD765",
"2	c #F1BF3E",
"3	c #F0BF41",
"4	c #F1BF46",
"5	c #DE9D0E",
"6	c #F5B600",
"7	c #F2B504",
"8	c #F0B204",
"9	c #EDAA00",
"0	c #FAD25E",
"a	c #FFD85E",
"b	c #FAD15D",
"c	c #E09B00",
"d	c #DF9C03",
"e	c #DA9403",
"f	c #D28A00",
"g	c #EAAB09",
"h	c #FCDE7E",
"i	c #F6C84C",
"j	c #FCD669",
"k	c #DF9E0B",
"l	c #EAA903",
"m	c #F9D568",
"n	c #EFBD3F",
"o	c #DD9600",
"p	c #F2C451",
"q	c #F4C654",
"r	c #EDB82F",
"s	c #FCDB7A",
"t	c #DE9800",
"u	c #DB9B15",
"v	c #FDD66E",
"w	c #D39119",
"x	c #E2A310",
"y	c #D08C15",
"                ",
"       .+@ #$%  ",
"       &*= -;>  ",
"        ,')!~   ",
"        {]^/(   ",
"     _:<[}|12345",
"     67890abcdef",
"        ghijk   ",
"       lmnopq   ",
"       rst uvw  ",
"        x   y   "};
